<?xml version="1.0" encoding="UTF-8"?><svg xmlns="http://www.w3.org/2000/svg" viewBox="0 0 83.67 57.56"><defs><style>.d{fill:#d6d7d8;}.e{fill:#fff;}.f{fill:#f7f7f9;}.g{fill:#c1c2c3;}.h{fill:#ededee;}.i{fill:#e4e6e6;}.j{fill:#e2e2e4;}.k{fill:#e0e1e2;}.l{fill:#c4c5c6;}.m{fill:#dbdcdd;}</style></defs><g id="a"/><g id="b"><g id="c"><g><g><ellipse class="m" cx="41.49" cy="46.82" rx="4.83" ry="7.55"/><ellipse class="m" cx="71.75" cy="30.86" rx="4.83" ry="6.72"/><path class="k" d="M26.02,57.23S20.3,24.51,49.08,12.09V32L83.67,15.26v9.93L26.02,57.23Z"/><path class="d" d="M44.84,19.38s-10.94,6.5-13.4,22.96l13.4-6.9V19.38Z"/><polygon class="h" points="31.74 40.63 44.84 32.69 44.84 35.45 31.44 42.35 31.74 40.63"/><polygon class="l" points="42.81 20.89 42.81 33.92 44.84 35.45 44.84 19.38 42.81 20.89"/><path class="f" d="M26.51,57.56S20.99,24.44,49.11,12.09C26.07,.53,23.88,0,23.88,0,23.88,0-1.75,10.64,.09,44.55l26.41,13.01Z"/><line class="e" x1="40.09" y1="3.97" x2="42.88" y2="5.45"/><path class="j" d="M21.22,38.9s-.66-1.48,.53-3.19c-14.32-6.7-13.63-7.15-13.63-7.15,0,0-.3-9.41,11.26-20.45l.39-3.29S9.26,10.35,4.14,29.27l17.08,9.63Z"/><polygon class="g" points="19.78 4.83 19.38 8.13 33.36 15.65 36.04 13.04 19.78 4.83"/><path class="i" d="M3.55,45.69s7.79,4.35,16.85,8.4v-3.43s-9.66-3.25-16.46-7.98c-.49,3.06-.39,3.01-.39,3.01Z"/><polygon class="f" points="83.67 15.26 55.95 5.45 44.57 9.82 49.11 12.09 49.08 32 83.67 15.26"/><polygon class="f" points="49.08 32 83.67 15.26 81.32 14.43 49.11 29.65 49.08 32"/><polygon class="f" points="79.66 15.22 54.15 6.14 55.95 5.45 81.93 14.65 79.66 15.22"/><polygon class="f" points="55.56 6.64 45.84 10.46 44.57 9.82 54.15 6.14 55.56 6.64"/><polygon class="g" points="55.56 6.64 55.56 14.05 70.09 19.74 79.66 15.22 55.56 6.64"/></g><polygon class="k" points="53.98 12.07 53.98 22.03 63.54 17.18 63.54 7.55 53.98 12.07"/><polygon class="l" points="44.57 8.15 44.57 9.82 49.11 12.09 49.11 19.38 53.98 22.03 53.98 12.07 44.57 8.15"/><polygon class="k" points="50.06 21.23 50.06 28.57 59.63 23.72 59.63 16.92 50.06 21.23"/><polygon class="f" points="50.06 21.23 59.59 17.01 50.33 13.37 49.11 13.87 49.11 20.69 50.06 21.23"/><polygon class="l" points="50.06 28.57 49.08 27.95 49.11 20.69 50.06 21.23 50.06 28.57"/><polygon class="f" points="44.57 8.15 54.85 4.13 63.54 7.55 53.98 12.07 44.57 8.15"/></g></g></g></svg>