<?xml version="1.0" encoding="UTF-8"?><svg xmlns="http://www.w3.org/2000/svg" viewBox="0 0 108.68 80.04"><defs><style>.d{fill:#d6d7d8;}.e{fill:#fff;}.f{fill:#7df451;}.g{fill:#f7f7f9;}.h{fill:#c1c2c3;}.i{fill:#d1d1d2;}.j{fill:#ededee;}.k{fill:#5bc43a;}.l{fill:#e4e6e6;}.m{fill:#e2e2e4;}.n{fill:#e0e1e2;}.o{fill:#c4c5c6;}.p{fill:#dbdcdd;}</style></defs><g id="a"/><g id="b"><g id="c"><ellipse class="p" cx="53.78" cy="68.59" rx="6.26" ry="7.16"/><ellipse class="p" cx="93.23" cy="46.6" rx="6.26" ry="7.16"/><path class="n" d="M33.99,80.04s-7.4-42.38,29.87-58.47v25.79l44.81-25.15v16.34L33.99,80.04Z"/><path class="d" d="M58.38,31.02s-14.17,8.43-17.36,29.74l17.36-8.94V31.02Z"/><polygon class="j" points="41.4 58.54 58.38 48.26 58.38 51.83 41.02 60.77 41.4 58.54"/><polygon class="o" points="55.75 32.98 55.75 49.85 58.38 51.83 58.38 31.02 55.75 32.98"/><polygon class="i" points="90.31 14.13 102.56 21.63 94.21 26.18 90.09 23.97 90.31 14.13"/><path class="g" d="M34.34,79.6s-7.15-42.89,29.28-58.89C33.77,5.72,30.93,5.04,30.93,5.04,30.93,5.04-2.26,18.83,.12,62.74l34.21,16.85Z"/><polygon class="e" points="63.91 43.15 63.91 47.4 108.68 21.87 77.53 3.32 52.72 15.27 56.32 17.19 77.87 6.55 102.89 21.87 63.91 43.15"/><path class="m" d="M27.78,56.3s-.85-1.91,.68-4.13c-18.55-8.68-17.65-9.26-17.65-9.26,0,0-.39-12.19,14.59-26.49l.51-4.26s-13.62,7.15-20.26,31.66l22.13,12.47Z"/><polygon class="k" points="62.53 19.59 62.53 7.5 76.48 16.18 90.95 8.18 90.86 23.68 78.53 30.48 62.53 19.59"/><polygon class="h" points="25.91 12.17 25.4 16.45 43.02 26.66 46.59 23.47 25.91 12.17"/><path class="l" d="M4.89,65.09s10.09,5.63,21.83,10.89v-4.45s-12.51-4.21-21.32-10.34c-.64,3.96-.51,3.9-.51,3.9Z"/><polygon class="f" points="62.53 7.5 77.16 0 90.95 8.18 76.48 16.18 62.53 7.5"/><polygon class="k" points="63.61 33.04 66.55 34.96 80.97 26.66 80.97 34.45 63.61 43 63.61 33.04"/><polygon class="f" points="66.42 18.36 80.97 27.04 66.42 34.96 63.61 33.04 66.42 18.36"/><polygon class="f" points="62.93 20.36 66.42 18.36 63.96 31.24 63.86 21.12 62.93 20.36"/></g></g></svg>