<?xml version="1.0" encoding="UTF-8"?><svg xmlns="http://www.w3.org/2000/svg" viewBox="0 0 108.38 74.55"><defs><style>.d{fill:#d6d7d8;}.e{fill:#fff;}.f{fill:#7df451;}.g{fill:#f7f7f9;}.h{fill:#c1c2c3;}.i{fill:#ededee;}.j{fill:#5bc43a;}.k{fill:#e4e6e6;}.l{fill:#e2e2e4;}.m{fill:#e0e1e2;}.n{fill:#c4c5c6;}.o{fill:#dbdcdd;}</style></defs><g id="a"/><g id="b"><g id="c"><ellipse class="o" cx="53.49" cy="62.67" rx="6.26" ry="7.16"/><ellipse class="o" cx="92.94" cy="40.68" rx="6.26" ry="7.16"/><path class="m" d="M33.7,74.13S26.3,31.74,63.57,15.66v25.79l44.81-15.03v6.22L33.7,74.13Z"/><path class="d" d="M58.09,25.11s-14.17,8.43-17.36,29.74l17.36-8.94V25.11Z"/><polygon class="i" points="41.11 52.62 58.09 42.34 58.09 45.91 40.72 54.85 41.11 52.62"/><polygon class="n" points="55.45 27.06 55.45 43.93 58.09 45.91 58.09 25.11 55.45 27.06"/><path class="g" d="M34.34,74.55S27.19,31.66,63.61,15.66C33.77,.68,30.93,0,30.93,0,30.93,0-2.26,13.79,.12,57.7l34.21,16.85Z"/><line class="e" x1="51.93" y1="5.15" x2="55.54" y2="7.06"/><path class="l" d="M27.49,50.38s-.85-1.91,.68-4.13c-18.55-8.68-17.65-9.26-17.65-9.26,0,0-.39-12.19,14.59-26.49l.51-4.26S12,13.4,5.36,37.91l22.13,12.47Z"/><polygon class="h" points="25.62 6.26 25.11 10.53 43.21 20.27 46.69 16.89 25.62 6.26"/><path class="k" d="M4.6,59.18s10.09,5.63,21.83,10.89v-4.45s-12.51-4.21-21.32-10.34c-.64,3.96-.51,3.9-.51,3.9Z"/><polygon class="o" points="108.38 26.41 72.47 7.06 55.54 11.63 63.61 15.66 63.57 41.45 108.38 26.41"/><polygon class="g" points="63.57 37.28 104.86 24.52 108.38 26.41 63.57 41.45 63.57 37.28"/><polygon class="g" points="58.09 12.9 74.74 8.29 72.47 7.06 55.54 11.63 58.09 12.9"/><ellipse class="f" cx="69.53" cy="30.32" rx="3.37" ry="4.33"/><ellipse class="f" cx="92.94" cy="23.11" rx="3.37" ry="4.33"/><polygon class="j" points="63.63 34.72 99.19 23.11 99.19 15.21 63.57 24.52 63.63 34.72"/><polygon class="f" points="68.95 23.11 63.61 18.53 63.57 24.52 68.95 23.11"/><polygon class="f" points="68.95 23.11 71.86 13.26 59.91 7.06 57.54 12.72 63.61 15.66 63.61 18.53 68.95 23.11"/><polygon class="f" points="59.91 7.06 78.91 2.63 90.5 8.45 71.86 13.26 59.91 7.06"/><polygon class="j" points="90.5 8.45 90.5 17.7 68.95 23.11 71.86 13.26 90.5 8.45"/><polygon class="f" points="99.19 15.21 91.58 11.86 90.5 12.02 90.5 17.48 99.19 15.21"/><polygon class="j" points="59.33 13.59 60.72 9.98 61.03 10.55 59.78 13.8 59.33 13.59"/><polygon class="j" points="60.72 9.98 69.53 13.8 69.34 14.35 61.03 10.55 60.72 9.98"/><polygon class="j" points="63.61 18.98 66.89 20.72 67.04 20.31 63.61 18.53 63.61 18.98"/><polygon class="f" points="88.38 11.52 88.24 17.96 88.98 17.74 89.11 11.34 88.38 11.52"/><polygon class="f" points="88.24 17.19 73.39 21.05 73.39 21.76 88.24 17.96 88.24 17.19"/></g></g></svg>