<?xml version="1.0" encoding="UTF-8"?><svg xmlns="http://www.w3.org/2000/svg" xmlns:xlink="http://www.w3.org/1999/xlink" viewBox="0 0 72.72 54.7"><defs><style>.e{fill:#f7f7f9;}.f{fill:url(#d);}.g{fill:#e0e1e2;}.h{fill:#c4c5c6;}.i{fill:#dbdcdd;}</style><linearGradient id="d" x1="46.93" y1="37.33" x2="31.43" y2="10.47" gradientTransform="matrix(1, 0, 0, 1, 0, 0)" gradientUnits="userSpaceOnUse"><stop offset="0" stop-color="#e0e1e2"/><stop offset=".55" stop-color="#f7f7f9"/></linearGradient></defs><g id="a"/><g id="b"><g id="c"><polygon class="i" points="28.5 47.68 39.34 53.7 61.9 38.36 61.9 27.61 35.77 43.2 28.5 47.68"/><path class="g" d="M17.57,40.86L7.3,30.21l-1.12-1.16-.7-.73h-.01l-1.41-1.47-.36-.37c-.6,.28-.98,.46-1.21,.57-.02,0-.04,.01-.05,.02-.06,.03-.12,.06-.17,.08-.09,.03-.17,.07-.25,.12,0,0,.07,.19,.22,.55l2.55,2.68,1.25,1.32,4.06,4.27,9.05,9.52c-.34-1.5-.87-3.1-1.58-4.75Z"/><path class="f" d="M72.24,21.39L21.53,51.9l-1.93,1.16-2,1.2c-.36-.21-.73-.47-1.1-.78h-.01c-.66-.56-1.34-1.27-2.02-2.1l-.03-.04c-1.94-2.36-3.92-5.69-5.69-9.11h-.01c-.23-.44-.44-.86-.66-1.29-.43-.85-.85-1.7-1.25-2.54-.35-.75-.7-1.49-1.03-2.21v-.02c-.04-.06-.07-.12-.09-.18-.15-.32-.3-.63-.43-.93-.34-.78-.67-1.52-.97-2.22v-.02c-1.01-2.31-1.74-4.13-2.07-5l2.24,2.35,.31,.33,1.25,1.32,3.21,3.38,.85,.89,9.05,9.52c-.34-1.5-.87-3.1-1.58-4.75l-7.06-7.32-3.21-3.33-1.12-1.16-.7-.73h-.01l-1.41-1.47-.36-.37,1.03-.49c.16-.07,.33-.15,.51-.24,.27-.13,.56-.27,.88-.42,.22-.1,.44-.21,.67-.32,5.53-2.63,17.53-8.36,43.53-20.81L59.1,0c3.58,.46,6.25,1.63,8.22,3.2,7.66,6.09,4.92,18.19,4.92,18.19Z"/><path class="g" d="M8.75,35.86l-1.92,2.54-.48,.64-.64-3.05-.17-.8c1.07,.68,2.55,.7,3.21,.67Z"/><path class="h" d="M19.61,49.92c-.01,.19-.02,.37-.05,.54-.06,.77-.23,1.47-.48,2.05-.06,.13-.12,.26-.2,.38-.31,.59-.74,1.05-1.28,1.37-.08,.04-.15,.08-.23,.12-.82,.39-1.8,.41-2.87,.12-1.59-.43-3.4-1.57-5.2-3.25h-.01c-.25-.33-.49-.66-.72-.98-.19-.26-.36-.51-.53-.77-.01-.02-.03-.04-.04-.06-.26-.39-.5-.78-.72-1.16-.18-.31-.35-.61-.51-.92-.13-.23-.25-.48-.37-.71,0-.02-.01-.03-.02-.05-.09-.17-.17-.34-.24-.52-.11-.23-.21-.47-.31-.7v-.02c-.14-.31-.26-.62-.38-.92-.06-.16-.11-.31-.16-.47-.1-.28-.19-.55-.27-.82-.11-.35-.2-.69-.29-1.04-.01-.03-.02-.06-.02-.08-.06-.24-.12-.49-.17-.73-.02-.09-.04-.19-.06-.28h0s-.02-.1-.03-.14c-.04-.23-.09-.46-.12-.69-.03-.12-.04-.24-.06-.36-.06-.37-.1-.74-.13-1.09-.02-.19-.04-.38-.05-.56-.02-.31-.04-.61-.05-.9-.01-.21-.02-.41-.02-.61v-.29c0-.23,0-.46,.01-.69,.01-.18,.02-.35,.03-.52v-.05c.01-.22,.03-.43,.06-.64v-.13s0-.04,.01-.06c0-.13,0-.26,.03-.39,.04-.37,.09-.72,.15-1.06v-.02s.01-.07,.02-.1c-.05,1.25,.49,2.02,1.21,2.47l.17,.8,.64,3.05,.48-.64,1.92-2.54c-.66,.03-2.14,.01-3.21-.67l-.88-4.16c1.83-5.54,7.16,.78,7.16,.78,1.4,1.55,2.76,3.42,3.97,5.51,.69,1.19,1.28,2.37,1.78,3.54,.71,1.65,1.24,3.25,1.58,4.75,.37,1.58,.52,3.04,.46,4.31Z"/><polygon class="g" points="38.99 41.4 38.96 53.7 28.5 47.7 38.99 41.4"/><path class="g" d="M9.29,51.24c-1.91-1.78-3.82-4.19-5.45-7.02-.41-.71-.79-1.42-1.14-2.13h0v-.02c-.82-1.66-1.45-3.31-1.9-4.86H.8c-.43-1.49-.69-2.88-.77-4.15-.01-.17-.02-.34-.02-.5-.01-.01-.01-.02,0-.03-.01-.03-.01-.06-.01-.09-.02-.96,.06-1.84,.25-2.59,.32-1.18,.9-2.08,1.77-2.58,.08-.05,.16-.09,.25-.12,.05-.02,.11-.05,.17-.08,0-.01,.03-.02,.05-.02,.47-.18,1-.25,1.57-.2,.55,.03,1.15,.18,1.76,.41l.09,.04s0,.01-.01,.02c-.01,.02-.03,.07-.06,.13-.02,.04-.04,.08-.06,.13-.04,.08-.08,.18-.13,.3-.05,.13-.11,.28-.17,.44h-.01s-.02,.09-.04,.13c-.04,.11-.08,.22-.12,.34-.11,.32-.23,.67-.34,1.07-.06,.2-.12,.42-.18,.64-.18,.69-.35,1.46-.48,2.32v.02c-.06,.34-.11,.69-.15,1.06-.02,.15-.03,.3-.04,.45-.01,.03-.01,.06,0,.09v.04c-.03,.19-.05,.38-.05,.57-.01,.04-.01,.08-.01,.12-.03,.39-.04,.8-.04,1.21v.29c0,.2,.01,.4,.02,.61,.01,.29,.02,.59,.05,.9,.01,.18,.03,.37,.05,.56,.03,.35,.07,.72,.13,1.09,.02,.12,.03,.24,.06,.36,.02,.18,.05,.36,.1,.55,.01,.09,.03,.18,.05,.27h0c.02,.1,.04,.2,.06,.29,.05,.24,.11,.49,.17,.73,0,.02,.01,.05,.02,.08,.08,.34,.18,.69,.29,1.04,.08,.27,.17,.54,.27,.82,.05,.16,.1,.31,.16,.47,.11,.3,.24,.61,.37,.92v.02c.11,.23,.2,.47,.32,.7,.07,.18,.15,.35,.24,.52,0,.02,.02,.03,.02,.05,.12,.23,.24,.48,.37,.71,.16,.31,.33,.61,.51,.92,.22,.38,.46,.77,.72,1.16,.01,.02,.03,.04,.04,.06,.17,.26,.34,.51,.53,.77,.23,.32,.47,.65,.72,.97Z"/><path class="e" d="M19.61,50.51c-.04,.99-.22,1.87-.53,2.59l-11-11.57-4.06-4.27L0,33.03c-.02-.96,.06-1.84,.25-2.59l3.91,4.05,1.12,1.16,14.33,14.86Z"/><path class="e" d="M17.37,54.38c-.82,.39-1.8,.41-2.87,.12l-7.87-8.28-.8-.84v-.02l-3.13-3.27h0v-.02c-.82-1.66-1.45-3.31-1.9-4.86l1.91,1.97,1.12,1.16,.65,.67h0l9.96,10.33,.03,.04,2.02,2.09h.02l.03,.04,.83,.87Z"/><path class="e" d="M67.32,3.2L11.82,31.81c-1.98-2.2-4.05-3.78-5.91-4.51,0,0,0,.01-.01,.02-.01,.02-.03,.06-.06,.13-.02,.04-.04,.08-.06,.13-.04,.08-.08,.18-.13,.3-.05,.13-.11,.28-.17,.44h-.01s-.02,.09-.04,.13c-.04,.11-.08,.22-.12,.34-.11,.32-.23,.67-.34,1.07-.06,.2-.12,.42-.18,.64-.04,.17-.09,.35-.13,.53l-.18-.86-.78-3.69,1.03-.49,.51-.24,.88-.42,.67-.32L50.32,4.2,59.1,0c3.58,.46,6.25,1.63,8.22,3.2Z"/><path class="e" d="M19.15,45.61l-9.05-9.52-4.06-4.27-1.25-1.32-2.55-2.68-.22-.23v-.32c.08-.05,.16-.09,.25-.12,.05-.02,.11-.05,.17-.08,0-.01,.03-.02,.05-.02,.23-.11,.61-.29,1.21-.57l.36,.37,1.41,1.47h.01l.7,.73,1.12,1.16,10.27,10.65c.71,1.65,1.24,3.25,1.58,4.75Z"/><polygon class="g" points="34.35 14.69 34.78 9.67 47.29 3.2 46.95 8.95 45.2 9.58 45.2 6.5 36.82 10.35 36.48 13.76 34.35 14.69"/><polygon class="e" points="34.35 14.69 32.99 13.91 33.44 8.95 45.75 2.87 47.29 3.2 34.78 9.67 34.35 14.69"/><path class="g" d="M5.54,35.19c-.72-.45-1.26-1.22-1.21-2.47,.09-.61,.21-1.17,.33-1.69l.88,4.16Z"/><path class="g" d="M4.66,31.03c-.12,.52-.24,1.08-.33,1.69,.01-.49,.12-1.04,.33-1.69Z"/></g></g></svg>