<?xml version="1.0" encoding="UTF-8"?><svg xmlns="http://www.w3.org/2000/svg" viewBox="0 0 84.21 59.1"><defs><style>.d{fill:#d6d7d8;}.e{fill:#fff;}.f{fill:#f7f7f9;}.g{fill:#c1c2c3;}.h{fill:#ededee;}.i{fill:#e4e6e6;}.j{fill:#e2e2e4;}.k{fill:#e0e1e2;}.l{fill:#c4c5c6;}.m{fill:#dbdcdd;}</style></defs><g id="a"/><g id="b"><g id="c"><g><g><ellipse class="m" cx="41.75" cy="48.29" rx="4.86" ry="7.6"/><ellipse class="m" cx="72.21" cy="32.23" rx="4.86" ry="6.77"/><path class="k" d="M26.19,58.77S20.43,25.84,49.4,13.34v20.04l34.82-16.84v10L26.19,58.77Z"/><path class="d" d="M45.13,20.68s-11.01,6.55-13.49,23.11l13.49-6.94V20.68Z"/><polygon class="h" points="31.94 42.06 45.13 34.07 45.13 36.85 31.64 43.79 31.94 42.06"/><polygon class="l" points="43.09 22.2 43.09 35.31 45.13 36.85 45.13 20.68 43.09 22.2"/><path class="f" d="M26.68,59.1S21.12,25.77,49.43,13.34C26.24,1.7,24.03,1.17,24.03,1.17,24.03,1.17-1.76,11.88,.1,46.01l26.58,13.09Z"/><line class="e" x1="40.35" y1="5.17" x2="43.15" y2="6.66"/><path class="j" d="M21.36,40.32s-.66-1.49,.53-3.21c-14.42-6.74-13.71-7.19-13.71-7.19,0,0-.31-9.47,11.33-20.58l.4-3.31S9.32,11.59,4.17,30.63l17.19,9.69Z"/><polygon class="g" points="19.9 6.03 19.51 9.35 33.57 16.92 36.28 14.3 19.9 6.03"/><path class="i" d="M3.57,47.15s7.84,4.38,16.96,8.46v-3.46s-9.72-3.27-16.56-8.03c-.5,3.07-.4,3.03-.4,3.03Z"/><polygon class="i" points="84.21 16.53 56.31 6.66 44.86 11.06 49.43 13.34 49.4 33.37 84.21 16.53"/><polygon class="f" points="49.4 33.37 84.21 16.53 81.85 15.7 49.43 31.02 49.4 33.37"/><polygon class="f" points="80.17 16.49 54.5 7.35 56.31 6.66 82.45 15.91 80.17 16.49"/><polygon class="f" points="55.91 7.86 46.14 11.7 44.86 11.06 54.5 7.35 55.91 7.86"/><polygon class="m" points="80.17 16.49 77.62 17.7 53.22 8.91 55.91 7.86 80.17 16.49"/><polygon class="m" points="55.29 9.66 47.95 12.78 46.14 11.7 53.22 8.91 55.29 9.66"/><polygon class="f" points="49.43 26.07 57.73 22.61 49.41 18.82 49.43 26.07"/><polygon class="m" points="57.73 22.61 57.73 24.73 49.43 28.45 49.43 26.07 57.73 22.61"/><polygon class="k" points="52.11 21.7 68.94 1.17 65.66 1.17 49.4 16.49 49.4 22.92 52.11 21.7"/><polygon class="f" points="65.78 1.17 63.89 1.17 49.45 13.64 49.4 16.49 65.78 1.17"/></g><path class="f" d="M63.89,1.17s3.02-2.52,5.2-.17c-.9,.26-3.31,.17-3.31,.17h-1.89Z"/><path class="k" d="M69.65,3.24c0,1.38-.88,2.52-2.01,2.69-.09,.01-.18,.02-.28,.02h-.08c-1.23-.05-2.21-1.25-2.21-2.71s1.03-2.71,2.29-2.71,2.29,1.21,2.29,2.71Z"/><path class="g" d="M67.63,5.92v2.57h-.36v-2.55h.08c.1,0,.19-.01,.28-.02Z"/><polygon class="m" points="67.15 8.14 68.48 8.62 68.48 13.9 69.54 13.9 69.54 12.87 70.73 12.87 70.73 15.25 67.15 15.25 67.15 8.14"/><polygon class="f" points="67.15 8.14 66.7 8.14 66.7 14.86 67.15 15.25 67.15 8.14"/><polygon class="g" points="70.73 12.87 69.78 12.53 68.72 12.53 69.54 12.87 70.73 12.87"/><polygon class="g" points="68.72 12.53 68.72 13.46 69.54 13.9 69.54 12.87 68.72 12.53"/><polygon class="g" points="68.72 13.46 68.48 13.46 68.48 13.9 69.54 13.9 68.72 13.46"/></g></g></g></svg>