<?xml version="1.0" encoding="UTF-8"?><svg xmlns="http://www.w3.org/2000/svg" viewBox="0 0 71.58 60.05"><defs><style>.d{fill:#d6d7d8;}.e{fill:#fff;}.f{fill:#f7f7f9;}.g{fill:#c1c2c3;}.h{fill:#ededee;}.i{fill:#e4e6e6;}.j{fill:#e0e1e2;}.k{fill:#c4c5c6;}.l{fill:#dbdcdd;}</style></defs><g id="a"/><g id="b"><g id="c"><g><ellipse class="l" cx="35.49" cy="50.86" rx="4.13" ry="6.46"/><ellipse class="l" cx="61.38" cy="37.21" rx="4.13" ry="5.75"/><path class="j" d="M22.26,59.77s-4.89-27.99,19.73-38.62v17.03l29.59-14.31v8.5L22.26,59.77Z"/><path class="d" d="M38.36,27.39s-9.36,5.56-11.47,19.64l11.47-5.9v-13.74Z"/><polygon class="h" points="27.15 45.56 38.36 38.77 38.36 41.13 26.9 47.03 27.15 45.56"/><polygon class="k" points="36.62 28.68 36.62 39.82 38.36 41.13 38.36 27.39 36.62 28.68"/><path class="f" d="M22.68,60.05s-4.72-28.33,19.34-38.9C22.3,11.26,20.43,10.81,20.43,10.81,20.43,10.81-1.49,19.91,.08,48.92l22.6,11.13Z"/><line class="e" x1="34.3" y1="14.21" x2="36.68" y2="15.47"/><path class="i" d="M3.04,49.89s6.66,3.72,14.42,7.19v-2.94s-8.26-2.78-14.08-6.83c-.42,2.61-.34,2.58-.34,2.58Z"/><polygon class="f" points="71.58 23.87 47.87 15.47 38.13 19.21 42.01 21.15 41.99 38.18 71.58 23.87"/><polygon class="f" points="41.99 38.18 71.58 23.87 69.57 23.15 42.01 36.18 41.99 38.18"/><polygon class="f" points="68.15 23.83 46.33 16.06 47.87 15.47 70.09 23.34 68.15 23.83"/><polygon class="f" points="47.53 16.49 39.22 19.76 38.13 19.21 46.33 16.06 47.53 16.49"/><polygon class="g" points="47.53 16.49 47.53 22.83 59.96 27.7 68.15 23.83 47.53 16.49"/></g><polygon class="j" points="41.56 21.36 71.4 7.86 71.4 32.36 41.8 38.18 41.56 21.36"/><polygon class="f" points="71.58 7.86 48.22 0 20.43 10.81 42.01 21.15 71.58 7.86"/><path class="h" d="M19.72,46.27L3.55,39.35s.07-1.66,.51-2.14,15.65,6.51,15.65,6.51v2.55Z"/><path class="h" d="M4.06,37.21s1.6-12.22,9.17-17.56l1.09,.48s-6.22,6.78-8.67,17.5l-1.6-.42Z"/><polygon class="h" points="42.3 38.77 68.66 25.22 68.66 23.83 42.3 37.19 42.3 38.77"/><polygon class="k" points="68.66 25.22 68.66 13.86 67.11 15.47 67.11 24.34 68.66 25.22"/><polygon class="k" points="56.25 31.49 56.25 20.13 54.7 21.74 54.7 30.61 56.25 31.49"/></g></g></svg>