<svg width="16" height="22" viewBox="0 0 16 22" fill="none" xmlns="http://www.w3.org/2000/svg">
<path d="M11.6801 2.96C12.1601 3.67 12.4401 4.52 12.4401 5.44C12.4301 7.84 10.5401 9.79 8.16008 9.87C8.06008 9.86 7.94008 9.86 7.83008 9.87C5.62008 9.8 3.83008 8.11 3.59008 5.95C3.30008 3.38 5.41008 1 7.99008 1" stroke="#F9F9F9" stroke-width="1.5" stroke-linecap="round" stroke-linejoin="round"/>
<path d="M2.99005 13.56C0.570049 15.18 0.570049 17.82 2.99005 19.43C5.74005 21.27 10.25 21.27 13 19.43C15.42 17.81 15.42 15.17 13 13.56C10.27 11.73 5.76005 11.73 2.99005 13.56Z" stroke="#F9F9F9" stroke-width="1.5" stroke-linecap="round" stroke-linejoin="round"/>
</svg>
