<svg width="24" height="31" viewBox="0 0 24 31" fill="none" xmlns="http://www.w3.org/2000/svg">
<g filter="url(#filter0_d_702_449)">
<path d="M15.6802 3.96C16.1602 4.67 16.4402 5.52 16.4402 6.44C16.4302 8.84 14.5402 10.79 12.1602 10.87C12.0602 10.86 11.9402 10.86 11.8302 10.87C9.6202 10.8 7.8302 9.11 7.5902 6.95C7.3002 4.38 9.4102 2 11.9902 2" stroke="#F9F9F9" stroke-width="1.5" stroke-linecap="round" stroke-linejoin="round"/>
<path d="M6.9898 14.56C4.5698 16.18 4.5698 18.82 6.9898 20.43C9.7398 22.27 14.2498 22.27 16.9998 20.43C19.4198 18.81 19.4198 16.17 16.9998 14.56C14.2698 12.73 9.7598 12.73 6.9898 14.56Z" stroke="#F9F9F9" stroke-width="1.5" stroke-linecap="round" stroke-linejoin="round"/>
</g>
<defs>
<filter id="filter0_d_702_449" x="0.424805" y="1.25" width="23.1401" height="29.31" filterUnits="userSpaceOnUse" color-interpolation-filters="sRGB">
<feFlood flood-opacity="0" result="BackgroundImageFix"/>
<feColorMatrix in="SourceAlpha" type="matrix" values="0 0 0 0 0 0 0 0 0 0 0 0 0 0 0 0 0 0 127 0" result="hardAlpha"/>
<feOffset dy="4"/>
<feGaussianBlur stdDeviation="2"/>
<feComposite in2="hardAlpha" operator="out"/>
<feColorMatrix type="matrix" values="0 0 0 0 0 0 0 0 0 0 0 0 0 0 0 0 0 0 0.25 0"/>
<feBlend mode="normal" in2="BackgroundImageFix" result="effect1_dropShadow_702_449"/>
<feBlend mode="normal" in="SourceGraphic" in2="effect1_dropShadow_702_449" result="shape"/>
</filter>
</defs>
</svg>
