<svg width="26" height="31" viewBox="0 0 26 31" fill="none" xmlns="http://www.w3.org/2000/svg">
<path d="M25.2678 10.5569C23.7517 3.91853 17.9329 0.92981 12.8216 0.92981C12.8216 0.92981 12.8216 0.92981 12.8072 0.92981C7.71027 0.92981 1.87701 3.90416 0.360938 10.5426C-1.3284 17.9569 3.23425 24.2361 7.36374 28.1875C8.89425 29.6531 10.8579 30.386 12.8216 30.386C14.7853 30.386 16.7489 29.6531 18.265 28.1875C22.3945 24.2361 26.9571 17.9713 25.2678 10.5569ZM12.8216 17.7557C10.3092 17.7557 8.27338 15.7297 8.27338 13.2295C8.27338 10.7294 10.3092 8.70336 12.8216 8.70336C15.3339 8.70336 17.3698 10.7294 17.3698 13.2295C17.3698 15.7297 15.3339 17.7557 12.8216 17.7557Z" fill="#5BC43A"/>
</svg>
