<?xml version="1.0" encoding="UTF-8"?><svg xmlns="http://www.w3.org/2000/svg" viewBox="0 0 22.13 22.13"><defs><style>.d{fill:#0b0b0b;}</style></defs><g id="a"/><g id="b"><g id="c"><path class="d" d="M18.89,3.24c-2-2.01-4.77-3.24-7.82-3.24S5.24,1.24,3.24,3.24C1.24,5.24,0,8,0,11.07c0,6.11,4.95,11.07,11.07,11.07,3.05,0,5.82-1.24,7.82-3.24,2.01-2,3.24-4.76,3.24-7.82s-1.24-5.82-3.24-7.82Zm-6.08,12.68c0,.96-.78,1.74-1.74,1.74s-1.74-.78-1.74-1.74v-5.14c0-.96,.78-1.74,1.74-1.74s1.74,.78,1.74,1.74v5.14Zm-1.74-7.98c-.96,0-1.74-.78-1.74-1.74s.78-1.74,1.74-1.74,1.74,.78,1.74,1.74-.78,1.74-1.74,1.74Z"/></g></g></svg>