<?xml version="1.0" encoding="UTF-8"?><svg xmlns="http://www.w3.org/2000/svg" viewBox="0 0 265.86 156.32"><defs><style>.d{fill:#e62031;}.e{fill:#f1dee0;}</style></defs><g id="a"/><g id="b"><g id="c"><path class="d" d="M208.15,132.62c-3.51,.46-7.09,.54-10.63,.54-56.62,.02-113.23,.02-169.85,.02q-4.12,0-4.7,3.93c-1.37,9.34-9.32,17.52-18.71,19.12-1.2,.2-2.46,.02-4.01,.02-.06-1.08-.15-2.09-.15-3.12-.01-29.16,.32-58.31-.1-87.45C-.4,36.36,22.22,4.79,58.8,.41q7.68-.92,7.68,6.84V56.72c3.97-19.48,13.73-34.94,30.31-45.91C107.84,3.5,123.75-.91,132.94,.72V57.33c1.94-5.85,3.39-12.34,6.14-18.19C149.61,16.82,167.41,4.04,191.85,.62c7.53-1.06,7.56-.92,7.55,6.61V56.4c.19,.04,.38,.06,.57,.08,.42-1.71,.87-3.43,1.26-5.15C207.37,24.15,231.15,3.08,258.79,.36q6.94-.68,6.94,6.18c0,19.86-.48,39.72,.11,59.56,.89,30.98-22.49,61.82-57.68,66.52Z"/><g><path class="e" d="M26.39,74.46h5.6v16.98l13.88-16.98h6.38l-8.58,10.11,9.35,14.29h-6.55l-6.36-10.11-8.55,10.11h-5.17v-24.39Z"/><path class="e" d="M54.53,104.54v-4.27c1.12,.7,2.18,1.21,3.17,1.52,.99,.31,2.09,.46,3.3,.46s2.31-.28,3.21-.84c.9-.56,1.64-1.47,2.22-2.74l.28-.6h-2.22l-11.21-23.62h6.16l8.94,19.91,9.03-19.91h5.95l-12.63,26.12c-1.91,3.99-4.93,5.99-9.05,5.99-2.63,0-5.01-.67-7.15-2.03Z"/><path class="e" d="M92.24,74.46v6.36c1.25-2.2,2.86-3.91,4.84-5.13s4.17-1.83,6.58-1.83,4.46,.54,6.31,1.61c1.85,1.07,3.3,2.58,4.33,4.51,1.03,1.94,1.55,4.17,1.55,6.68s-.52,4.74-1.55,6.68c-1.03,1.94-2.48,3.44-4.33,4.51-1.85,1.07-3.96,1.61-6.31,1.61s-4.62-.61-6.58-1.84-3.57-2.96-4.84-5.18v13.53h-5.6v-31.5h5.6Zm2.29,16.55c1.03,1.25,2.21,2.22,3.53,2.92,1.33,.7,2.75,1.04,4.26,1.04s2.86-.35,4.05-1.06,2.12-1.69,2.79-2.95c.67-1.26,1-2.7,1-4.31s-.33-3.04-1-4.3c-.67-1.26-1.6-2.24-2.79-2.95s-2.54-1.07-4.05-1.07-2.93,.35-4.26,1.06c-1.33,.7-2.51,1.68-3.53,2.93-1.03,1.25-1.85,2.69-2.47,4.33,.62,1.65,1.44,3.1,2.47,4.35Z"/><path class="e" d="M126.24,97.85c-2.25-1.07-3.99-2.58-5.24-4.51s-1.86-4.17-1.86-6.68,.62-4.74,1.86-6.68,2.99-3.44,5.24-4.51,4.84-1.61,7.77-1.61,5.52,.54,7.77,1.61c2.25,1.07,3.99,2.58,5.24,4.51,1.24,1.94,1.86,4.17,1.86,6.68s-.62,4.74-1.86,6.68c-1.24,1.94-2.99,3.44-5.24,4.51-2.25,1.07-4.84,1.61-7.77,1.61s-5.52-.54-7.77-1.61Zm-.29-6.73c.75,1.26,1.81,2.24,3.19,2.92,1.38,.68,3,1.02,4.87,1.02s3.49-.34,4.87-1.02c1.38-.68,2.44-1.66,3.19-2.92,.75-1.26,1.12-2.75,1.12-4.46s-.37-3.17-1.12-4.44c-.75-1.26-1.81-2.24-3.19-2.93-1.38-.69-3-1.03-4.87-1.03s-3.49,.34-4.87,1.03c-1.38,.69-2.44,1.67-3.19,2.93-.75,1.26-1.12,2.74-1.12,4.44s.37,3.2,1.12,4.46Z"/><path class="e" d="M154.42,88.58c-1.75-1.82-2.62-4.49-2.62-7.99v-6.12h5.56v5.9c0,2.13,.51,3.74,1.53,4.83s2.54,1.64,4.55,1.64c1.52,0,2.96-.32,4.32-.96,1.36-.64,2.62-1.6,3.78-2.88v-8.53h5.6v24.39h-5.6v-11.33c-1.09,1.21-2.46,2.14-4.09,2.8-1.64,.66-3.43,.99-5.39,.99-3.35,0-5.89-.91-7.64-2.74Z"/><path class="e" d="M183.09,74.46h5.6v16.98l13.88-16.98h6.38l-8.58,10.11,9.35,14.29h-6.55l-6.36-10.11-8.55,10.11h-5.17v-24.39Z"/><path class="e" d="M233.63,92.8c-1.26,2.1-2.87,3.73-4.81,4.9s-4.08,1.76-6.42,1.76-4.46-.54-6.31-1.61c-1.85-1.07-3.3-2.58-4.33-4.51s-1.55-4.17-1.55-6.68,.52-4.74,1.55-6.68,2.48-3.44,4.33-4.51c1.85-1.07,3.96-1.61,6.31-1.61s4.5,.58,6.43,1.75c1.93,1.16,3.53,2.79,4.79,4.89l.62-6.03h5.78l-1.29,12.2,1.29,12.2h-5.78l-.62-6.06Zm-16.73-1.83c.67,1.26,1.6,2.25,2.79,2.95s2.54,1.06,4.05,1.06,2.93-.35,4.26-1.04c1.33-.7,2.51-1.67,3.53-2.92,1.03-1.25,1.85-2.7,2.47-4.35-.62-1.64-1.44-3.08-2.47-4.33-1.03-1.25-2.21-2.23-3.53-2.93-1.33-.7-2.75-1.06-4.26-1.06s-2.86,.36-4.05,1.07-2.12,1.7-2.79,2.95c-.67,1.26-1,2.69-1,4.3s.33,3.05,1,4.31Z"/></g></g></g></svg>