<?xml version="1.0" encoding="UTF-8"?><svg xmlns="http://www.w3.org/2000/svg" viewBox="0 0 82.4 12.8"><defs><style>.d{fill:#0b0b0b;}</style></defs><g id="a"/><g id="b"><g id="c"><g><path class="d" d="M8.49,3V12.8h-2.05v-4.41H2.04v4.41H0V3H2.04v3.5H6.44V3h2.05Z"/><path class="d" d="M15.65,3l3.88,9.8h-2.02l-.59-1.48h-4.57l-.59,1.48h-2.02L13.63,3h2.02Zm-2.57,6.47h3.11l-1.55-3.92-1.56,3.92Z"/><path class="d" d="M29.24,3.01c1.65,0,2.97,1.14,2.97,2.93,0,1.66-1.28,2.89-2.97,2.89h-2.94v3.97h-2.04V3.01h4.98Zm-.25,3.98c.59,0,1.22-.36,1.22-1.05s-.6-1.05-1.23-1.05h-2.68v2.09h2.69Z"/><path class="d" d="M38.76,3l3.88,9.8h-2.02l-.59-1.48h-4.57l-.59,1.48h-2.02l3.89-9.8h2.02Zm-2.57,6.47h3.11l-1.55-3.92-1.56,3.92Z"/><path class="d" d="M52.53,2.99V12.8h-2.04V6.58l-5.91,6.22h-1.03V2.99h2.05v6.22l5.91-6.22h1.03Zm-2.12-1.69l-2.19,2.31-1.37-1.31,2.19-2.31,1.37,1.31Z"/><path class="d" d="M58.77,3c2.98,0,5,2.24,5,4.9,0,2.9-2.26,4.9-5,4.9-2.97,0-5-2.22-5-4.9s2.2-4.9,5-4.9Zm0,7.95c1.83,0,2.86-1.4,2.86-3.05,0-1.81-1.24-3.05-2.86-3.05-1.81,0-2.87,1.4-2.87,3.05s1.13,3.05,2.87,3.05Z"/><path class="d" d="M73.72,3V12.8h-2.05v-4.41h-4.4v4.41h-2.04V3h2.04v3.5h4.4V3h2.05Z"/><path class="d" d="M82.4,3v1.89h-4.85v1.61h3.61v1.89h-3.61v2.53h4.85v1.89h-6.9V3h6.9Z"/></g></g></g></svg>