<svg width="28" height="24" viewBox="0 0 28 24" fill="none" xmlns="http://www.w3.org/2000/svg">
<path d="M10.124 19H9.57161C5.15245 19 2.94287 18 2.94287 13V8C2.94287 4 5.15245 2 9.57161 2H18.4099C22.8291 2 25.0387 4 25.0387 8V13C25.0387 17 22.8291 19 18.4099 19H17.8575C17.5151 19 17.1836 19.15 16.9737 19.4L15.3165 21.4C14.5874 22.28 13.3942 22.28 12.665 21.4L11.0078 19.4C10.8311 19.18 10.4223 19 10.124 19Z" stroke="#5BC43A" stroke-width="1.5" stroke-miterlimit="10" stroke-linecap="round" stroke-linejoin="round"/>
<path d="M18.4062 11H18.4161" stroke="#5BC43A" stroke-width="2" stroke-linecap="round" stroke-linejoin="round"/>
<path d="M13.9858 11H13.9957" stroke="#5BC43A" stroke-width="2" stroke-linecap="round" stroke-linejoin="round"/>
<path d="M9.56586 11H9.57578" stroke="#5BC43A" stroke-width="2" stroke-linecap="round" stroke-linejoin="round"/>
</svg>
