<svg width="24" height="23" viewBox="0 0 24 23" fill="none" xmlns="http://www.w3.org/2000/svg">
<path d="M12.012 2.77771C8.79493 2.77771 6.18043 5.34544 6.18043 8.50498V11.2636C6.18043 11.8459 5.92773 12.7336 5.62643 13.23L4.50871 15.0532C3.81864 16.1795 4.29489 17.43 5.5584 17.85C9.74742 19.2245 14.2669 19.2245 18.4559 17.85C19.632 17.4682 20.1471 16.1032 19.5056 15.0532L18.3879 13.23C18.0963 12.7336 17.8436 11.8459 17.8436 11.2636V8.50498C17.8436 5.35498 15.2194 2.77771 12.012 2.77771Z" stroke="#FF5733" stroke-width="2" stroke-miterlimit="10" stroke-linecap="round"/>
<path d="M13.8105 3.05453C13.5092 2.96862 13.1982 2.90181 12.8774 2.86362C11.9444 2.74908 11.0502 2.8159 10.2144 3.05453C10.4962 2.34817 11.196 1.85181 12.0124 1.85181C12.8289 1.85181 13.5286 2.34817 13.8105 3.05453Z" stroke="#FF5733" stroke-width="2" stroke-miterlimit="10" stroke-linecap="round" stroke-linejoin="round"/>
<path d="M14.9278 18.1937C14.9278 19.7687 13.6157 21.0573 12.012 21.0573C11.215 21.0573 10.4763 20.7328 9.95149 20.2173C9.42665 19.7018 9.09619 18.9764 9.09619 18.1937" stroke="#FF5733" stroke-width="2" stroke-miterlimit="10"/>
</svg>
