<?xml version="1.0" encoding="UTF-8"?><svg xmlns="http://www.w3.org/2000/svg" xmlns:xlink="http://www.w3.org/1999/xlink" viewBox="0 0 188.5 98.81"><defs><style>.e{fill:#fff;}.f{fill:#f7f7f9;}.g{fill:#5bc43a;}.h{fill:#f9f9f9;}.i{fill:#4faa2d;}.j{fill:url(#d);}.k{fill:#e0e1e2;}.l{fill:#60b737;}</style><linearGradient id="d" x1="114.33" y1="16.73" x2="188.47" y2="16.73" gradientTransform="matrix(1, 0, 0, 1, 0, 0)" gradientUnits="userSpaceOnUse"><stop offset="0" stop-color="#e0e1e2"/><stop offset=".55" stop-color="#f7f7f9"/></linearGradient></defs><g id="a"/><g id="b"><g id="c"><rect class="g" y="0" width="188.43" height="98.81"/><g><polygon class="f" points="155.79 98.81 155.79 33.45 114.33 11.77 114.33 77.44 155.79 98.81"/><polygon class="k" points="155.58 98.81 188.47 87.35 188.47 22.61 155.58 33.45 155.58 98.81"/><polygon class="j" points="188.47 22.61 155.58 33.45 114.33 11.77 146.52 0 188.43 0 188.47 22.61"/></g><path class="l" d="M155.58,66.13v10.04l-41.25-22.08v-10.49c0,.4,41.25,22.53,41.25,22.53Z"/><path class="l" d="M114.33,38.83c0,.4,41.25,22.53,41.25,22.53v5.36l-41.25-22.09v-5.81Z"/><polygon class="i" points="188.43 57.55 188.36 62.25 188.43 62.23 188.42 63.15 155.58 76.17 155.58 66.13 155.6 66.12 155.6 61.36 188.5 49.41 188.38 57.56 188.43 57.55"/><g><path class="e" d="M122.17,49.19l-.27,1.25,1.95,.96,.28-1.24,.54,.27-.66,2.96-.53-.26,.27-1.26-1.94-.95-.26,1.27-.54-.26,.61-2.98,.55,.26Z"/><path class="e" d="M126.74,54.15c-.16,.13-.34,.2-.54,.22-.2,.01-.41-.03-.62-.14-.22-.11-.4-.26-.55-.44-.15-.18-.25-.39-.31-.61-.06-.22-.06-.45,0-.68,.05-.23,.15-.41,.28-.54,.14-.13,.3-.2,.5-.21,.2-.01,.4,.04,.62,.15,.22,.11,.4,.27,.56,.46,.15,.2,.26,.42,.33,.67l.19-.52,.53,.27-.39,1.05-.15,1.17-.52-.27,.07-.58Zm-1.49-.95c.04,.15,.1,.28,.2,.4,.1,.12,.21,.21,.35,.28,.14,.07,.28,.11,.41,.1,.14,0,.26-.03,.38-.1,.12-.07,.23-.16,.32-.28-.02-.18-.06-.35-.13-.51-.07-.16-.15-.31-.26-.43-.11-.13-.23-.23-.37-.3-.14-.07-.27-.1-.4-.09-.13,0-.23,.05-.32,.14-.09,.08-.15,.2-.18,.35-.03,.15-.03,.29,0,.44Z"/><path class="e" d="M129.76,53.85l-.15,.57c.16-.14,.35-.22,.55-.23,.21-.02,.42,.03,.63,.15,.21,.11,.39,.26,.52,.45,.14,.19,.23,.39,.27,.61,.04,.22,.04,.45-.03,.68-.06,.23-.16,.4-.3,.52-.14,.13-.3,.19-.49,.2-.19,0-.39-.04-.59-.15-.21-.12-.39-.28-.54-.48-.15-.2-.25-.44-.31-.7l-.31,1.22-.5-.26,.72-2.85,.51,.27Zm-.18,1.6c.06,.16,.14,.31,.25,.43,.1,.13,.22,.23,.35,.3,.13,.07,.26,.1,.38,.1,.12,0,.23-.05,.32-.13,.09-.08,.15-.2,.19-.34,.04-.14,.04-.29,.01-.43-.03-.15-.09-.28-.18-.4-.09-.12-.2-.22-.33-.29-.14-.07-.27-.11-.41-.11-.14,0-.26,.03-.39,.1-.12,.06-.23,.15-.32,.27,.02,.18,.06,.35,.12,.51Z"/><path class="e" d="M133.75,57.91c-.16,.13-.34,.2-.54,.21-.2,.01-.4-.04-.6-.15-.2-.11-.37-.26-.51-.45-.13-.18-.22-.39-.27-.61-.04-.22-.03-.45,.03-.67,.06-.23,.16-.4,.3-.53,.14-.12,.31-.19,.49-.2,.19,0,.39,.05,.6,.16,.21,.11,.38,.27,.52,.47,.14,.2,.23,.42,.29,.67l.21-.51,.5,.28-.43,1.02-.2,1.15-.49-.28,.1-.57Zm-1.4-.97c.03,.14,.08,.28,.17,.4,.09,.12,.19,.22,.32,.29,.13,.07,.26,.11,.39,.11,.13,0,.26-.03,.38-.09,.12-.06,.23-.15,.32-.27-.01-.18-.05-.34-.1-.51-.06-.16-.13-.31-.23-.43-.1-.13-.21-.23-.34-.3-.13-.07-.26-.11-.38-.1-.12,0-.23,.05-.32,.13-.09,.08-.15,.19-.19,.34-.04,.14-.05,.29-.02,.43Z"/><path class="e" d="M135.24,56.85l.48,.27-.51,1.7,1.79-.96,.61,.36-.67,2.16-.46-.27,.52-1.71-1.8,.97-.6-.34,.64-2.17Zm.76-.02c-.1-.19-.13-.4-.1-.64l.39,.22c-.02,.13,0,.24,.05,.35,.05,.1,.13,.18,.23,.24,.11,.06,.2,.08,.29,.06,.09-.02,.16-.09,.22-.19l.38,.22c-.1,.2-.23,.32-.4,.35-.17,.04-.36,0-.59-.13-.22-.13-.38-.28-.48-.48Z"/><path class="e" d="M137.94,60.85c-.16-.2-.26-.42-.31-.65-.05-.23-.04-.46,.03-.68,.07-.22,.18-.39,.34-.5,.16-.11,.35-.16,.56-.14,.22,.02,.45,.1,.69,.24,.24,.15,.44,.32,.6,.53,.15,.21,.25,.42,.3,.66,.05,.23,.03,.46-.04,.68-.07,.22-.19,.39-.34,.49-.16,.11-.34,.15-.55,.14-.21-.02-.44-.1-.68-.24-.24-.14-.44-.32-.6-.52Zm.16-.61c.03,.15,.09,.28,.18,.41,.09,.13,.22,.24,.37,.33,.15,.09,.3,.14,.43,.15,.13,0,.25-.03,.34-.1,.1-.07,.17-.19,.22-.34,.05-.15,.06-.3,.04-.44-.03-.15-.09-.29-.18-.42-.09-.13-.22-.24-.37-.33-.16-.09-.3-.14-.43-.15-.13,0-.25,.03-.35,.1-.1,.07-.17,.19-.22,.34-.05,.15-.06,.3-.03,.45Z"/><path class="e" d="M141.3,60.41l-.29,.86,1.22,.76,.3-.86,.45,.28-.74,2.12-.44-.28,.3-.89-1.22-.75-.3,.89-.45-.27,.71-2.14,.45,.28Z"/><path class="e" d="M143.19,64.07c-.14-.2-.24-.42-.28-.65-.04-.23-.02-.46,.06-.67,.08-.22,.19-.38,.35-.49,.15-.11,.33-.16,.54-.14,.2,.01,.41,.09,.63,.23,.21,.14,.38,.31,.5,.52,.12,.21,.19,.44,.2,.68,.01,.25-.02,.5-.12,.75l-1.68-1.08c-.02,.2,.02,.39,.12,.58,.1,.18,.25,.34,.46,.47,.15,.09,.31,.16,.48,.21,.17,.05,.33,.06,.48,.05l-.13,.35c-.15,.02-.32,0-.51-.04-.19-.05-.37-.13-.54-.24-.22-.14-.4-.32-.55-.52Zm1.55-.44c.03-.19,0-.36-.06-.52-.07-.16-.19-.29-.35-.39-.11-.07-.22-.11-.32-.13-.1-.01-.2,0-.29,.04-.09,.04-.16,.11-.22,.21l1.24,.79Z"/></g><polygon class="l" points="125.8 45.28 125.8 17.77 138.78 24.62 138.78 52.32 125.8 45.28"/><polygon class="l" points="125.8 83.32 125.8 55.81 138.78 62.66 138.78 90.36 125.8 83.32"/><polygon class="l" points="125.8 17.77 176.1 0 188.43 0 188.47 6.18 138.78 24.62 125.8 17.77"/><g><path class="h" d="M23.68,32.53h-1.83v-8.86h-6.65v8.86h-1.85v-10.5h10.33v10.5Z"/><path class="h" d="M28.35,32.05c-.91-.46-1.62-1.1-2.12-1.92-.5-.83-.76-1.77-.76-2.84s.25-2.02,.76-2.84c.5-.83,1.21-1.47,2.12-1.92,.91-.45,1.96-.68,3.14-.68s2.23,.23,3.14,.68c.91,.46,1.62,1.1,2.12,1.92,.5,.83,.76,1.77,.76,2.84s-.25,2.02-.76,2.84c-.5,.83-1.21,1.47-2.12,1.92-.91,.45-1.96,.68-3.14,.68s-2.23-.23-3.14-.68Zm-.5-2.75c.34,.57,.82,1.01,1.44,1.32s1.35,.46,2.19,.46,1.57-.15,2.19-.46,1.1-.75,1.44-1.32c.34-.57,.51-1.24,.51-2.01s-.17-1.44-.51-2.01c-.34-.57-.82-1.01-1.44-1.32s-1.35-.46-2.19-.46-1.57,.15-2.19,.46-1.1,.75-1.44,1.32c-.34,.57-.51,1.24-.51,2.01s.17,1.44,.51,2.01Z"/><path class="h" d="M37.83,30.91h1.3c.41-.46,.71-1.13,.91-1.99,.2-.87,.3-1.95,.3-3.26,0-.98-.07-2.19-.2-3.63h9.44v8.88h1.85v3.78h-1.72v-2.16h-10.15v2.16h-1.72v-3.78Zm9.9,.03v-7.28h-5.75c.06,.83,.08,1.61,.08,2.37,0,1.17-.08,2.17-.26,3.01s-.42,1.47-.74,1.9h6.66Z"/><path class="h" d="M64.27,32.53h-1.97l-1.13-2.41h-6.19l-1.13,2.41h-1.97l5.04-10.5h2.31l5.04,10.5Zm-3.81-3.93l-2.38-5.1-2.38,5.1h4.76Z"/><path class="h" d="M73.12,22.45c.58,.28,1.03,.67,1.34,1.17,.31,.5,.47,1.08,.47,1.73s-.16,1.22-.47,1.73c-.31,.5-.76,.89-1.34,1.17-.58,.28-1.25,.42-2.02,.42h-3.71v3.86h-1.85v-10.5h5.56c.77,0,1.44,.14,2.02,.42Zm-2.09,4.62c.42,0,.78-.07,1.08-.21s.54-.34,.7-.6c.16-.26,.24-.56,.24-.91s-.08-.65-.24-.91c-.16-.26-.4-.46-.7-.6-.31-.14-.67-.21-1.08-.21h-3.64v3.44h3.64Z"/><path class="h" d="M76.45,22.03h1.85v7.91l6.47-7.91h2l-3.69,4.47,3.84,6.03h-2.11l-2.92-4.58-3.79,4.58h-1.65v-10.5Z"/><path class="h" d="M88.09,22.03h1.79v8.7l6.69-8.7h2.41v10.5h-1.79v-8.79l-6.75,8.79h-2.35v-10.5Z"/></g><g><path class="h" d="M23.68,45.81h-1.83v-8.86h-6.65v8.86h-1.85v-10.5h10.33v10.5Z"/><path class="h" d="M28.35,45.32c-.91-.46-1.62-1.1-2.12-1.92-.5-.83-.76-1.77-.76-2.84s.25-2.02,.76-2.84c.5-.83,1.21-1.47,2.12-1.92,.91-.45,1.96-.68,3.14-.68s2.23,.23,3.14,.68c.91,.46,1.62,1.1,2.12,1.92,.5,.83,.76,1.77,.76,2.84s-.25,2.02-.76,2.84c-.5,.83-1.21,1.47-2.12,1.92-.91,.45-1.96,.68-3.14,.68s-2.23-.23-3.14-.68Zm-.5-2.75c.34,.57,.82,1.01,1.44,1.32s1.35,.46,2.19,.46,1.57-.15,2.19-.46,1.1-.75,1.44-1.32c.34-.57,.51-1.24,.51-2.01s-.17-1.44-.51-2.01c-.34-.57-.82-1.01-1.44-1.32s-1.35-.46-2.19-.46-1.57,.15-2.19,.46-1.1,.75-1.44,1.32c-.34,.57-.51,1.24-.51,2.01s.17,1.44,.51,2.01Z"/><path class="h" d="M37.83,44.19h1.3c.41-.46,.71-1.13,.91-1.99,.2-.87,.3-1.95,.3-3.26,0-.98-.07-2.19-.2-3.63h9.44v8.88h1.85v3.78h-1.72v-2.16h-10.15v2.16h-1.72v-3.78Zm9.9,.03v-7.28h-5.75c.06,.83,.08,1.61,.08,2.37,0,1.17-.08,2.17-.26,3.01s-.42,1.47-.74,1.9h6.66Z"/><path class="h" d="M64.27,45.81h-1.97l-1.13-2.41h-6.19l-1.13,2.41h-1.97l5.04-10.5h2.31l5.04,10.5Zm-3.81-3.93l-2.38-5.1-2.38,5.1h4.76Z"/><path class="h" d="M73.12,35.73c.58,.28,1.03,.67,1.34,1.17,.31,.5,.47,1.08,.47,1.73s-.16,1.22-.47,1.73c-.31,.5-.76,.89-1.34,1.17-.58,.28-1.25,.42-2.02,.42h-3.71v3.86h-1.85v-10.5h5.56c.77,0,1.44,.14,2.02,.42Zm-2.09,4.62c.42,0,.78-.07,1.08-.21s.54-.34,.7-.6c.16-.26,.24-.56,.24-.91s-.08-.65-.24-.91c-.16-.26-.4-.46-.7-.6-.31-.14-.67-.21-1.08-.21h-3.64v3.44h3.64Z"/><path class="h" d="M76.45,35.31h1.85v7.91l6.47-7.91h2l-3.69,4.47,3.84,6.03h-2.11l-2.92-4.58-3.79,4.58h-1.65v-10.5Z"/><path class="h" d="M88.09,35.31h1.79v8.7l6.69-8.7h2.41v10.5h-1.79v-8.79l-6.75,8.79h-2.35v-10.5Z"/></g><g><path class="h" d="M23.68,61.02h-1.83v-8.86h-6.65v8.86h-1.85v-10.5h10.33v10.5Z"/><path class="h" d="M28.35,60.53c-.91-.46-1.62-1.1-2.12-1.92-.5-.83-.76-1.77-.76-2.84s.25-2.02,.76-2.84c.5-.83,1.21-1.47,2.12-1.92,.91-.45,1.96-.68,3.14-.68s2.23,.23,3.14,.68c.91,.46,1.62,1.1,2.12,1.92,.5,.83,.76,1.77,.76,2.84s-.25,2.02-.76,2.84c-.5,.83-1.21,1.47-2.12,1.92-.91,.45-1.96,.68-3.14,.68s-2.23-.23-3.14-.68Zm-.5-2.75c.34,.57,.82,1.01,1.44,1.32s1.35,.46,2.19,.46,1.57-.15,2.19-.46,1.1-.75,1.44-1.32c.34-.57,.51-1.24,.51-2.01s-.17-1.44-.51-2.01c-.34-.57-.82-1.01-1.44-1.32s-1.35-.46-2.19-.46-1.57,.15-2.19,.46-1.1,.75-1.44,1.32c-.34,.57-.51,1.24-.51,2.01s.17,1.44,.51,2.01Z"/><path class="h" d="M37.83,59.4h1.3c.41-.46,.71-1.13,.91-1.99,.2-.87,.3-1.95,.3-3.26,0-.98-.07-2.19-.2-3.63h9.44v8.88h1.85v3.78h-1.72v-2.16h-10.15v2.16h-1.72v-3.78Zm9.9,.03v-7.28h-5.75c.06,.83,.08,1.61,.08,2.37,0,1.17-.08,2.17-.26,3.01s-.42,1.47-.74,1.9h6.66Z"/><path class="h" d="M64.27,61.02h-1.97l-1.13-2.41h-6.19l-1.13,2.41h-1.97l5.04-10.5h2.31l5.04,10.5Zm-3.81-3.93l-2.38-5.1-2.38,5.1h4.76Z"/><path class="h" d="M73.12,50.94c.58,.28,1.03,.67,1.34,1.17,.31,.5,.47,1.08,.47,1.73s-.16,1.22-.47,1.73c-.31,.5-.76,.89-1.34,1.17-.58,.28-1.25,.42-2.02,.42h-3.71v3.86h-1.85v-10.5h5.56c.77,0,1.44,.14,2.02,.42Zm-2.09,4.62c.42,0,.78-.07,1.08-.21s.54-.34,.7-.6c.16-.26,.24-.56,.24-.91s-.08-.65-.24-.91c-.16-.26-.4-.46-.7-.6-.31-.14-.67-.21-1.08-.21h-3.64v3.44h3.64Z"/><path class="h" d="M76.45,50.52h1.85v7.91l6.47-7.91h2l-3.69,4.47,3.84,6.03h-2.11l-2.92-4.58-3.79,4.58h-1.65v-10.5Z"/><path class="h" d="M88.09,50.52h1.79v8.7l6.69-8.7h2.41v10.5h-1.79v-8.79l-6.75,8.79h-2.35v-10.5Z"/></g><g><path class="h" d="M23.68,76.17h-1.83v-8.86h-6.65v8.86h-1.85v-10.5h10.33v10.5Z"/><path class="h" d="M28.35,75.68c-.91-.46-1.62-1.1-2.12-1.92-.5-.83-.76-1.77-.76-2.84s.25-2.02,.76-2.84c.5-.83,1.21-1.47,2.12-1.92,.91-.45,1.96-.68,3.14-.68s2.23,.23,3.14,.68c.91,.46,1.62,1.1,2.12,1.92,.5,.83,.76,1.77,.76,2.84s-.25,2.02-.76,2.84c-.5,.83-1.21,1.47-2.12,1.92-.91,.45-1.96,.68-3.14,.68s-2.23-.23-3.14-.68Zm-.5-2.75c.34,.57,.82,1.01,1.44,1.32s1.35,.46,2.19,.46,1.57-.15,2.19-.46,1.1-.75,1.44-1.32c.34-.57,.51-1.24,.51-2.01s-.17-1.44-.51-2.01c-.34-.57-.82-1.01-1.44-1.32s-1.35-.46-2.19-.46-1.57,.15-2.19,.46-1.1,.75-1.44,1.32c-.34,.57-.51,1.24-.51,2.01s.17,1.44,.51,2.01Z"/><path class="h" d="M37.83,74.55h1.3c.41-.46,.71-1.13,.91-1.99,.2-.87,.3-1.95,.3-3.26,0-.98-.07-2.19-.2-3.63h9.44v8.88h1.85v3.78h-1.72v-2.16h-10.15v2.16h-1.72v-3.78Zm9.9,.03v-7.28h-5.75c.06,.83,.08,1.61,.08,2.37,0,1.17-.08,2.17-.26,3.01s-.42,1.47-.74,1.9h6.66Z"/><path class="h" d="M64.27,76.17h-1.97l-1.13-2.41h-6.19l-1.13,2.41h-1.97l5.04-10.5h2.31l5.04,10.5Zm-3.81-3.93l-2.38-5.1-2.38,5.1h4.76Z"/><path class="h" d="M73.12,66.09c.58,.28,1.03,.67,1.34,1.17,.31,.5,.47,1.08,.47,1.73s-.16,1.22-.47,1.73c-.31,.5-.76,.89-1.34,1.17-.58,.28-1.25,.42-2.02,.42h-3.71v3.86h-1.85v-10.5h5.56c.77,0,1.44,.14,2.02,.42Zm-2.09,4.62c.42,0,.78-.07,1.08-.21s.54-.34,.7-.6c.16-.26,.24-.56,.24-.91s-.08-.65-.24-.91c-.16-.26-.4-.46-.7-.6-.31-.14-.67-.21-1.08-.21h-3.64v3.44h3.64Z"/><path class="h" d="M76.45,65.67h1.85v7.91l6.47-7.91h2l-3.69,4.47,3.84,6.03h-2.11l-2.92-4.58-3.79,4.58h-1.65v-10.5Z"/><path class="h" d="M88.09,65.67h1.79v8.7l6.69-8.7h2.41v10.5h-1.79v-8.79l-6.75,8.79h-2.35v-10.5Z"/></g></g></g></svg>