<?xml version="1.0" encoding="UTF-8"?><svg xmlns="http://www.w3.org/2000/svg" viewBox="0 0 23.06 22.13"><defs><style>.d{fill:#0b0b0b;}</style></defs><g id="a"/><g id="b"><g id="c"><circle class="d" cx="11.53" cy="6.07" r="6.07"/><path class="d" d="M20.56,21.46c-.74,.43-1.53,.65-2.33,.66-.06,.01-.11,.01-.17,.01H4.99c-1.73,0-3.4-.9-4.32-2.5-1.38-2.39-.56-5.45,1.83-6.83,2-1.15,4.45-.77,6.01,.77,.32,.32,.6,.67,.83,1.07,2.2,3.36,4.19,.41,4.19,.41h.01c.51-.89,1.1-1.71,2.03-2.25,2.39-1.38,5.45-.56,6.82,1.84,1.38,2.39,.56,5.45-1.83,6.82Z"/></g></g></svg>