<svg width="14" height="18" viewBox="0 0 14 18" fill="none" xmlns="http://www.w3.org/2000/svg">
<path fill-rule="evenodd" clip-rule="evenodd" d="M3.47277 3.99857C3.47355 1.9283 5.15231 0.25 7.22276 0.25C9.29369 0.25 10.9728 1.92907 10.9728 4C10.9728 6.07184 9.29356 7.75 7.22276 7.75H7.19827C5.13296 7.74312 3.46569 6.06327 3.47277 3.99857ZM3.47277 3.99857L3.47278 3.99715L3.47277 4L3.47277 3.99857ZM0.920484 12.2199C2.17083 10.1274 4.29834 8.75005 7.22273 8.75C10.1472 8.74995 12.2747 10.1274 13.525 12.2199C14.6265 14.0632 13.5978 16.2127 11.7346 17.0224C8.73529 18.3258 5.71018 18.3258 2.71091 17.0224C0.847703 16.2127 -0.180994 14.0632 0.920484 12.2199Z" fill="#0B0B0B"/>
</svg>
