<svg width="28" height="24" viewBox="0 0 28 24" fill="none" xmlns="http://www.w3.org/2000/svg">
<path d="M14.9788 9H8.3501" stroke="#5BC43A" stroke-width="1.5" stroke-linecap="round" stroke-linejoin="round"/>
<path d="M24.922 10.97V13.03C24.922 13.58 24.4359 14.03 23.8172 14.05H21.6518C20.4586 14.05 19.3649 13.26 19.2655 12.18C19.1992 11.55 19.4643 10.96 19.9283 10.55C20.3371 10.17 20.9005 9.95001 21.5192 9.95001H23.8172C24.4359 9.97001 24.922 10.42 24.922 10.97Z" stroke="#5BC43A" stroke-width="1.5" stroke-linecap="round" stroke-linejoin="round"/>
<path d="M19.9283 10.55C19.4643 10.96 19.1992 11.55 19.2655 12.18C19.3649 13.26 20.4586 14.05 21.6518 14.05H23.8172V15.5C23.8172 18.5 21.6076 20.5 18.2932 20.5H8.35012C5.03575 20.5 2.82617 18.5 2.82617 15.5V8.5C2.82617 5.78 4.63803 3.88 7.45525 3.56C7.74249 3.52 8.04078 3.5 8.35012 3.5H18.2932C18.5805 3.5 18.8567 3.50999 19.1218 3.54999C21.9722 3.84999 23.8172 5.76 23.8172 8.5V9.95001H21.5192C20.9005 9.95001 20.3371 10.17 19.9283 10.55Z" stroke="#5BC43A" stroke-width="1.5" stroke-linecap="round" stroke-linejoin="round"/>
</svg>
