<?xml version="1.0" encoding="UTF-8"?><svg xmlns="http://www.w3.org/2000/svg" viewBox="0 0 18 22.13"><defs><style>.d{fill:#0b0b0b;}</style></defs><g id="a"/><g id="b"><g id="c"><path class="d" d="M16.1,0H1.89C.85,0,0,.85,0,1.89V20.25c0,1.04,.85,1.88,1.89,1.88h14.21c1.05,0,1.89-.85,1.89-1.88V1.89c0-1.05-.85-1.89-1.89-1.89Zm-2.62,12.49H4.5c-.63,0-1.14-.52-1.14-1.15s.51-1.14,1.14-1.14H13.48c.63,0,1.15,.51,1.15,1.14s-.52,1.15-1.15,1.15Zm0-4.73H4.5c-.63,0-1.14-.52-1.14-1.15s.51-1.14,1.14-1.14H13.48c.63,0,1.15,.51,1.15,1.14s-.52,1.15-1.15,1.15Z"/></g></g></svg>